<?xml version="1.0" standalone="no"?>
<!DOCTYPE svg PUBLIC "-//W3C//DTD SVG 20010904//EN"
 "http://www.w3.org/TR/2001/REC-SVG-20010904/DTD/svg10.dtd">
<svg version="1.0" xmlns="http://www.w3.org/2000/svg"
 width="800.000000pt" height="800.000000pt" viewBox="0 0 800.000000 800.000000"
 preserveAspectRatio="xMidYMid meet">
<metadata>
Created by potrace 1.11, written by Peter Selinger 2001-2013
</metadata>
<g transform="translate(0.000000,800.000000) scale(0.100000,-0.100000)"
fill="#000000" stroke="none">
<path d="M4247 5724 c-1 -1 -33 -5 -70 -8 -38 -3 -72 -8 -76 -11 -5 -2 -25 -7
-46 -11 -85 -13 -234 -83 -335 -157 -79 -58 -174 -160 -233 -249 -35 -55 -57
-78 -71 -79 -59 -2 -178 -42 -259 -86 -238 -132 -387 -384 -388 -655 -1 -359
224 -647 583 -744 57 -16 145 -18 963 -19 820 -1 907 0 980 16 96 21 143 40
210 85 184 123 286 311 287 525 1 104 -14 170 -58 268 -86 187 -257 319 -460
353 l-61 10 -27 86 c-52 165 -119 276 -235 393 -157 157 -363 258 -561 274
-104 9 -140 12 -143 9z m252 -289 c285 -96 467 -348 475 -660 l2 -60 126 -1
c174 -3 240 -26 329 -116 72 -72 102 -142 105 -245 7 -200 -119 -357 -311
-390 -39 -6 -1742 -7 -1775 0 -167 34 -300 128 -369 262 -174 339 54 726 439
740 41 2 80 4 85 4 6 1 18 24 28 51 73 206 265 375 485 430 115 28 270 22 381
-15z"/>
<path d="M6083 5090 c-56 -13 -110 -56 -139 -110 -18 -33 -19 -72 -24 -725
l-5 -691 -1616 0 -1615 0 -32 -23 c-61 -43 -60 -25 -58 -621 2 -584 2 -576 54
-615 25 -18 44 -20 242 -22 118 -1 218 -2 221 -2 4 -1 11 -20 17 -44 6 -23 28
-74 48 -112 116 -224 332 -355 574 -350 182 4 313 59 440 185 80 79 147 190
170 280 l11 45 909 0 909 0 11 -45 c40 -157 177 -322 330 -397 47 -23 101 -45
120 -49 19 -4 42 -9 50 -12 8 -2 58 -5 110 -6 278 -7 523 169 615 443 l22 63
160 2 c157 1 162 2 218 31 64 33 110 82 129 139 10 29 12 187 11 699 l-2 662
-46 175 c-75 291 -205 680 -302 904 -26 61 -120 149 -190 177 l-60 24 -625 2
c-344 1 -640 -2 -657 -7z m595 -249 c9 -1 12 -101 12 -463 0 -441 1 -465 20
-495 35 -59 25 -58 524 -63 l460 -5 8 -30 c6 -23 12 -928 9 -1207 l-1 -38
-134 0 -134 0 -12 48 c-15 63 -63 155 -112 217 -191 243 -536 315 -804 168
-148 -82 -265 -225 -310 -381 -9 -29 -18 -52 -20 -50 -5 5 -12 2279 -7 2293 3
8 426 13 501 6z m666 -16 c31 -21 58 -76 118 -240 57 -156 170 -503 165 -506
-1 -1 -154 -2 -340 -3 -218 0 -337 3 -338 9 -1 6 -2 177 -3 380 -1 293 1 371
11 375 7 3 91 5 186 4 149 -1 177 -4 201 -19z m-1424 -1901 l0 -384 -774 0
c-835 0 -786 -3 -786 49 0 9 -18 52 -41 96 -87 171 -199 270 -379 335 -55 20
-85 24 -190 24 -144 1 -216 -17 -330 -84 -128 -75 -244 -221 -286 -361 l-18
-59 -133 0 c-111 0 -133 2 -134 15 0 8 0 159 0 335 0 176 0 342 0 369 l1 49
1535 0 1535 0 0 -384z m-2091 -140 c84 -14 183 -85 236 -169 40 -63 55 -109
60 -180 9 -154 -78 -299 -220 -370 -54 -27 -70 -29 -160 -30 -89 0 -106 3
-155 27 -74 37 -121 77 -162 140 -49 74 -65 131 -63 213 2 84 10 116 43 175
87 155 240 226 421 194z m3142 -26 c72 -32 143 -97 179 -163 108 -194 27 -434
-180 -533 -48 -24 -67 -27 -155 -27 -91 0 -105 3 -160 30 -210 105 -284 357
-161 550 105 163 303 223 477 143z"/>
<path d="M161 4772 c-138 -10 -181 -185 -60 -247 25 -13 170 -15 1150 -13
l1121 3 34 37 c58 64 45 159 -28 203 -28 16 -101 17 -1101 19 -590 0 -1092 0
-1116 -2z"/>
<path d="M731 4203 c-92 -46 -93 -185 -2 -230 33 -16 97 -17 826 -17 l790 -1
36 23 c90 55 84 176 -12 224 -32 17 -91 18 -819 18 -712 0 -788 -2 -819 -17z"/>
<path d="M1372 3687 c-28 -5 -51 -19 -72 -44 -29 -33 -32 -41 -28 -89 3 -34
12 -62 24 -75 43 -49 52 -49 572 -49 l488 1 36 29 c20 16 40 42 45 57 20 57
-7 127 -60 158 -27 16 -69 18 -498 19 -257 1 -485 -3 -507 -7z"/>
</g>
</svg>
